<svg width="657" height="416" viewBox="0 0 657 416" fill="none" xmlns="http://www.w3.org/2000/svg">
<path d="M650.445 296.867C657.667 274.059 658.916 249.775 654.072 226.345C646.194 189.788 620.766 145.529 547.371 126.437C408.46 90.2768 360.229 -15.4782 230.272 18.2219C230.272 18.2219 160.543 30.9185 127.539 146.494C94.5346 262.07 -34.7987 264.037 9.72928 364.665C17.0026 381.108 36.6123 399.065 64.7422 416L591.823 414.24C628.152 370.379 639.487 332.44 650.445 296.867Z" fill="#EDF9FD"/>
<path d="M526.099 214.197H506.3V192.55C506.283 187.389 504.527 182.385 501.319 178.347C498.11 174.309 493.635 171.473 488.617 170.298V143.334H481.344V169.711C475.662 170.24 470.381 172.874 466.537 177.099C462.693 181.324 460.562 186.834 460.563 192.55V214.84H440.859V239.685H439.537V285.874L403.774 285.722V230.413H362.817V270.868H334.064V310.169H299.341V414.24H584.229V283.016H526.042L526.099 214.197Z" fill="#D6D7F4"/>
<path d="M118.112 271.379V219.665H137.457V192.001H144.73V219.665H162.564V271.379H182.57V302.355H214.46V196.827H281.016V414.184H237.64H218.956H171.934H150.228H93.4955V271.379H118.112Z" fill="#D6D7F4"/>
<path d="M481.741 413.654L178.376 413.9C172.865 413.9 167.579 411.707 163.682 407.803C159.785 403.9 157.595 398.606 157.595 393.086L502.522 392.802C502.527 395.538 501.993 398.249 500.951 400.779C499.909 403.308 498.379 405.607 496.448 407.544C494.518 409.481 492.226 411.017 489.702 412.066C487.178 413.114 484.473 413.654 481.741 413.654Z" fill="#3D5AC4"/>
<path d="M481.741 406.482L178.376 406.823C174.117 406.828 169.959 405.522 166.465 403.082C162.971 400.642 160.31 397.185 158.842 393.18H157.558C157.558 398.7 159.747 403.994 163.644 407.898C167.541 411.801 172.827 413.994 178.339 413.994L481.741 413.654C487.252 413.654 492.538 411.461 496.435 407.557C500.332 403.654 502.522 398.36 502.522 392.839H501.218C499.754 396.835 497.102 400.286 493.619 402.725C490.136 405.165 485.991 406.476 481.741 406.482Z" fill="#5571E9"/>
<path d="M349.649 399.897H310.449C308.605 399.892 306.838 399.158 305.532 397.853C304.226 396.549 303.488 394.781 303.478 392.934H356.602C356.604 393.849 356.426 394.756 356.077 395.602C355.729 396.448 355.217 397.216 354.571 397.863C353.925 398.51 353.157 399.023 352.313 399.372C351.468 399.721 350.563 399.9 349.649 399.897Z" fill="#27429C"/>
<path d="M484.783 392.821L175.316 393.067L175.165 205.966C175.165 200.807 177.211 195.86 180.853 192.212C184.495 188.564 189.435 186.514 194.585 186.514L465.248 186.306C467.798 186.304 470.323 186.804 472.679 187.78C475.035 188.755 477.176 190.186 478.98 191.991C480.783 193.796 482.214 195.939 483.19 198.298C484.167 200.657 484.669 203.186 484.669 205.739L484.783 392.821Z" fill="#0A475C"/>
<path d="M468.592 202.579H191.355V376.775H468.592V202.579Z" fill="#DCDBEE"/>
<path d="M468.649 360.124H191.412V376.775H468.649V360.124Z" fill="#151247"/>
<path d="M468.517 202.579H191.279V210.848H468.517V202.579Z" fill="#151247"/>
<path opacity="0.16" d="M283.736 202.617L191.355 295.297L191.412 376.888H191.619L365.405 202.56L283.736 202.617Z" fill="#5571E9"/>
<path opacity="0.16" d="M227.212 376.869L268.15 376.832L441.936 202.484L400.997 202.522L227.212 376.869Z" fill="#5571E9"/>
<path opacity="0.16" d="M436.042 376.699L468.63 344.002L468.573 282.165L370.77 376.737L436.042 376.699Z" fill="#5571E9"/>
<path d="M484.783 276.98H175.165V311.21H484.783V276.98Z" fill="#EF801E"/>
<path d="M213.798 323.226H187.142L210.077 270.698H236.714L213.798 323.226Z" fill="white"/>
<path d="M270.606 323.225H243.969L266.903 270.698H293.541L270.606 323.225Z" fill="white"/>
<path d="M327.414 323.225H300.776L323.711 270.698H350.348L327.414 323.225Z" fill="white"/>
<path d="M384.221 323.225H357.584L380.519 270.698H407.156L384.221 323.225Z" fill="white"/>
<path d="M441.029 323.225H414.391L437.326 270.698H463.964L441.029 323.225Z" fill="white"/>
<path d="M150.303 217.868L144.258 218.114L140.706 216.979C139.914 216.718 139.059 216.728 138.273 217.005C137.487 217.282 136.815 217.812 136.361 218.511L135.908 219.174L153.609 228.956L157.029 221.614L150.303 217.868Z" fill="#14103D"/>
<path d="M153.609 229.108L135.775 219.249L136.399 218.114C136.426 218.059 136.465 218.011 136.512 217.973C136.559 217.934 136.614 217.906 136.673 217.89C136.731 217.874 136.793 217.87 136.853 217.879C136.913 217.889 136.971 217.911 137.022 217.944L154.459 227.575L153.609 229.108Z" fill="#14103D"/>
<path d="M157.029 221.614L161.695 213.497L157.029 205.152L150.303 217.868L157.029 221.614Z" fill="#B57A74"/>
<path d="M193.641 175.01C193.641 175.01 168.439 167.762 166.002 174.574C163.565 181.386 148.867 211.567 148.867 211.567L159.843 217.244L176.317 188.652L198.477 186.76L193.641 175.01Z" fill="#14103D"/>
<path d="M173.143 227.064L168.137 230.224L164.491 230.962C163.677 231.129 162.937 231.554 162.383 232.174C161.828 232.794 161.488 233.577 161.411 234.406V235.2H181.626L181.059 227.121L173.143 227.064Z" fill="#14103D"/>
<path d="M181.72 235.295H161.355V234.008C161.352 233.947 161.362 233.886 161.384 233.829C161.405 233.772 161.438 233.719 161.481 233.675C161.523 233.631 161.574 233.596 161.63 233.572C161.686 233.548 161.747 233.535 161.808 233.535H181.72V235.276" fill="#14103D"/>
<path d="M181.078 227.083L181.72 213.497L173.672 212.589L173.143 227.064L181.078 227.083Z" fill="#B57A74"/>
<path d="M197.06 173.836L173.294 174.934C173.294 174.934 169.875 175.104 170.102 183.127C170.328 191.15 170.309 223.393 170.309 223.393L181.645 223.791L183.836 190.015L207.621 189.712C210.086 189.712 212.498 188.997 214.566 187.654C216.635 186.311 218.271 184.397 219.277 182.143C220.124 180.324 220.356 178.278 219.938 176.315L197.06 173.836Z" fill="#231C61"/>
<path d="M174.504 169.049C174.504 171.301 172.973 171.641 170.725 171.641C168.477 171.641 166.342 171.32 166.323 169.049C166.394 168.011 166.855 167.038 167.615 166.327C168.374 165.617 169.374 165.222 170.413 165.222C171.453 165.222 172.453 165.617 173.212 166.327C173.972 167.038 174.433 168.011 174.504 169.049Z" fill="#E1AD9D"/>
<path d="M177.375 171.358H172.652C172.059 171.358 171.49 171.123 171.069 170.705C170.648 170.287 170.409 169.719 170.404 169.125C170.401 168.83 170.457 168.538 170.568 168.265C170.679 167.992 170.843 167.743 171.05 167.534C171.257 167.325 171.504 167.158 171.776 167.045C172.047 166.932 172.339 166.873 172.633 166.873H177.356C177.952 166.873 178.524 167.111 178.946 167.533C179.367 167.955 179.604 168.528 179.604 169.125C179.595 169.714 179.357 170.276 178.941 170.693C178.525 171.11 177.963 171.348 177.375 171.358Z" fill="#E1AD9D"/>
<path d="M177.186 171.831L175.694 164.091L195.096 161.972L198.874 139.266C199.271 137.203 202.256 134.649 204.315 135.027L203.71 134.876C204.788 135.118 205.741 135.742 206.397 136.631C207.053 137.521 207.367 138.617 207.281 139.72L203.502 166.892C203.366 167.608 203.026 168.269 202.523 168.796C202.02 169.323 201.376 169.693 200.669 169.863L177.186 171.831Z" fill="#C8C6F2"/>
<path d="M215.952 135.538C216.353 135.57 216.748 135.659 217.123 135.803H217.312C218.92 136.522 220.299 137.671 221.299 139.123C222.298 140.574 222.88 142.274 222.98 144.034L219.938 176.202C199.837 176.031 196.985 173.704 196.985 173.704L198.572 140.761C198.817 137.639 200.234 134.725 203.786 134.422L215.952 135.538Z" fill="#D8D7FD"/>
<path d="M193.811 171.566C193.962 173.818 192.451 174.272 190.203 174.423C187.954 174.574 185.82 174.423 185.65 172.134C185.647 171.092 186.039 170.088 186.748 169.325C187.456 168.562 188.428 168.098 189.465 168.026C190.503 167.954 191.529 168.279 192.336 168.936C193.143 169.594 193.67 170.534 193.811 171.566Z" fill="#B57A74"/>
<path d="M196.815 173.685L192.111 174.007C191.818 174.027 191.524 173.99 191.245 173.896C190.967 173.802 190.71 173.655 190.489 173.461C190.268 173.268 190.087 173.033 189.957 172.769C189.826 172.505 189.75 172.219 189.73 171.925C189.689 171.331 189.884 170.744 190.274 170.294C190.663 169.843 191.215 169.566 191.808 169.522L196.512 169.201C197.108 169.164 197.694 169.364 198.143 169.757C198.592 170.15 198.868 170.705 198.912 171.301C198.948 171.895 198.748 172.48 198.355 172.927C197.962 173.373 197.408 173.646 196.815 173.685Z" fill="#B57A74"/>
<path d="M196.664 174.177L194.585 166.514L215.725 163.108L214.535 143.41C214.716 142.298 215.272 141.281 216.111 140.53C216.95 139.779 218.021 139.34 219.145 139.285C220.215 139.481 221.182 140.051 221.873 140.892C222.565 141.734 222.937 142.793 222.923 143.883L224.453 167.498C224.366 168.222 224.072 168.905 223.606 169.466C223.14 170.027 222.523 170.44 221.827 170.658L196.664 174.177Z" fill="#D8D7FD"/>
<path d="M160.089 148.008L183.25 150.184C183.621 150.221 183.967 150.383 184.232 150.645C184.497 150.907 184.664 151.252 184.705 151.622L187.123 172.436C187.165 172.683 187.15 172.935 187.078 173.175C187.007 173.414 186.881 173.634 186.711 173.817C186.541 174 186.332 174.141 186.098 174.23C185.865 174.319 185.615 174.352 185.366 174.328L161.827 172.02C161.453 171.986 161.102 171.822 160.836 171.555C160.57 171.289 160.406 170.938 160.372 170.563L158.332 149.749C158.312 149.513 158.343 149.276 158.424 149.054C158.506 148.833 158.635 148.631 158.803 148.465C158.97 148.299 159.173 148.172 159.395 148.093C159.617 148.014 159.854 147.985 160.089 148.008Z" fill="#091218"/>
<path d="M158.691 147.895L181.758 150.071C182.127 150.103 182.473 150.262 182.738 150.521C183.003 150.779 183.171 151.121 183.213 151.49L185.631 172.304C185.673 172.55 185.657 172.803 185.586 173.042C185.514 173.282 185.389 173.501 185.219 173.684C185.049 173.867 184.839 174.009 184.606 174.097C184.373 174.186 184.122 174.22 183.874 174.196L160.58 171.887C160.21 171.851 159.864 171.688 159.599 171.426C159.334 171.165 159.167 170.82 159.126 170.449L157.085 149.635C157.07 149.414 157.1 149.192 157.173 148.982C157.247 148.773 157.362 148.581 157.513 148.417C157.663 148.254 157.845 148.124 158.048 148.034C158.251 147.944 158.469 147.897 158.691 147.895Z" fill="#1B2934"/>
<path d="M186.386 172.587L202.142 174.082C202.257 174.094 202.368 174.128 202.469 174.183C202.57 174.238 202.659 174.313 202.731 174.403C202.803 174.493 202.856 174.596 202.888 174.706C202.92 174.817 202.93 174.933 202.917 175.047C202.907 175.161 202.875 175.272 202.822 175.373C202.769 175.474 202.697 175.563 202.609 175.636C202.521 175.708 202.419 175.762 202.309 175.794C202.2 175.826 202.085 175.836 201.972 175.823L185.253 174.309L186.386 172.587Z" fill="#091218"/>
<path d="M171.915 160.515C171.872 161.016 171.68 161.493 171.365 161.885C171.05 162.277 170.626 162.566 170.146 162.715C169.667 162.865 169.154 162.868 168.673 162.725C168.191 162.582 167.763 162.298 167.443 161.911C167.123 161.523 166.925 161.049 166.875 160.549C166.824 160.049 166.924 159.544 167.16 159.101C167.396 158.657 167.759 158.294 168.202 158.057C168.645 157.82 169.149 157.721 169.648 157.772C169.977 157.803 170.297 157.898 170.589 158.053C170.881 158.207 171.139 158.418 171.35 158.673C171.56 158.928 171.719 159.222 171.816 159.538C171.913 159.854 171.947 160.186 171.915 160.515Z" fill="white"/>
<path d="M213.799 148.008L214.309 162.805L194.585 166.57L211.966 161.121L213.799 148.008Z" fill="#C8C6F2"/>
<path d="M203.332 133.57L204.655 137.109C204.88 137.738 205.284 138.287 205.819 138.687C206.353 139.087 206.993 139.322 207.659 139.36C208.251 139.401 208.843 139.288 209.379 139.034C209.916 138.78 210.378 138.393 210.723 137.909C211.067 137.426 211.283 136.862 211.348 136.271C211.414 135.681 211.327 135.083 211.097 134.535L208.773 129.105L203.332 133.57Z" fill="#EB8175"/>
<path d="M204.504 136.73C204.504 136.73 211.002 135.5 210.058 129.805C209.113 124.109 202.992 128.556 202.992 128.556L203.578 134.233L204.504 136.73Z" fill="#E16C5F"/>
<path d="M194.586 119.701C193.733 121.528 193.441 123.567 193.746 125.56C194.051 127.554 194.939 129.412 196.298 130.9C197.657 132.388 199.425 133.439 201.381 133.921C203.336 134.402 205.39 134.292 207.283 133.605C209.176 132.917 210.822 131.683 212.015 130.058C213.208 128.434 213.893 126.491 213.984 124.477C214.075 122.462 213.567 120.466 212.525 118.74C211.483 117.014 209.954 115.636 208.131 114.781C206.92 114.21 205.607 113.884 204.27 113.822C202.933 113.761 201.596 113.964 200.337 114.421C199.079 114.878 197.923 115.58 196.936 116.486C195.948 117.392 195.15 118.485 194.586 119.701Z" fill="#A8645C"/>
<path d="M207.489 126.04C207.489 126.04 205.921 134.214 211.89 134.346C217.86 134.479 214.63 119.001 214.63 119.001L205.184 109.426L190.656 113.002L192.092 122.463C192.092 122.463 194.415 123.693 206.903 121.631L207.489 126.04Z" fill="#231C61"/>
<path d="M201.557 119.644L206.336 126.626L210.455 122.085L201.557 119.644Z" fill="#231C61"/>
<path d="M205.921 124.147C205.678 124.664 205.595 125.241 205.681 125.805C205.768 126.369 206.02 126.895 206.405 127.316C206.791 127.736 207.293 128.032 207.847 128.166C208.401 128.299 208.982 128.265 209.516 128.067C210.051 127.869 210.514 127.516 210.848 127.053C211.182 126.591 211.37 126.039 211.39 125.468C211.409 124.898 211.259 124.334 210.958 123.85C210.657 123.365 210.219 122.981 209.699 122.747C209.012 122.432 208.229 122.402 207.521 122.665C206.812 122.927 206.237 123.46 205.921 124.147Z" fill="#B57A74"/>
<path d="M192.507 122.331C192.507 122.331 190.297 114.27 195.511 109.294C196.534 108.315 197.746 107.555 199.071 107.059C200.396 106.563 201.809 106.342 203.222 106.409C204.635 106.476 206.02 106.831 207.292 107.45C208.565 108.069 209.699 108.941 210.625 110.013C212.886 112.929 214.074 116.538 213.987 120.23L192.507 122.331Z" fill="#F5D100"/>
<path d="M193.603 122.179V117.165C193.598 116.554 193.829 115.964 194.248 115.519C194.667 115.075 195.242 114.81 195.851 114.781C196.454 114.749 197.047 114.951 197.504 115.346C197.962 115.741 198.25 116.298 198.307 116.9L198.817 121.914" stroke="#F1AB00" stroke-width="0.28" stroke-miterlimit="10"/>
<path d="M214.006 120.23L190.618 122.482" stroke="white" stroke-width="1.12" stroke-linecap="round" stroke-linejoin="round"/>
<path d="M426.955 391.667L432.188 396.756L426.218 399.973L421.098 394.959L426.955 391.667Z" fill="#B57A74"/>
<path d="M390.04 353.671L393.554 369.206C394.284 372.387 395.639 375.391 397.54 378.043L420.607 398.857L429.713 391.421L410.028 370.606L402.811 343.075L390.04 353.671Z" fill="#14103D"/>
<path d="M426.048 399.841L424.159 405.877L421.986 408.885C421.487 409.544 421.216 410.348 421.216 411.175C421.216 412.002 421.487 412.806 421.986 413.464L422.477 414.108L437.194 400.37L431.3 394.845L426.048 399.841Z" fill="#14103D"/>
<path d="M437.44 400.408L422.61 414.259L421.419 412.973L436.249 399.141L437.44 400.408Z" fill="#14103D"/>
<path d="M376.514 401.127L374.549 407.693L367.804 405.877L369.769 399.424L376.514 401.127Z" fill="#B57A74"/>
<path d="M385.582 336.339L366.69 400.39L378.629 403.379L389.284 371.212L402.357 350.208C403.04 349.266 403.671 348.287 404.247 347.276C405.275 345.399 405.789 343.284 405.739 341.145V336.982L385.582 336.339Z" fill="#231C61"/>
<path d="M368.182 405.252L362.212 407.466L358.434 407.58C357.598 407.599 356.792 407.896 356.143 408.423C355.493 408.95 355.037 409.679 354.845 410.494L354.637 411.269L374.624 414.562L375.399 406.463L368.182 405.252Z" fill="#14103D"/>
<path d="M374.738 414.694L354.599 411.383L354.882 409.642L375.021 412.973L374.738 414.694Z" fill="#14103D"/>
<path d="M359.171 271.285L351.52 283.243L355.185 285.874L363.1 273.234L359.171 271.285Z" fill="#334FBE"/>
<path d="M349.234 251.492C349.234 251.492 352.767 266.308 370.676 272.136C370.929 272.214 371.156 272.362 371.329 272.563C371.503 272.764 371.617 273.009 371.658 273.271C371.996 274.638 371.791 276.082 371.086 277.3C370.381 278.518 369.232 279.414 367.88 279.8C367.492 279.888 367.085 279.82 366.747 279.61C364.007 277.888 350.537 270.017 337.464 272.288L349.234 251.492Z" fill="#4265D1"/>
<path d="M349.234 251.492C349.234 251.492 345.965 266.27 337.521 272.306C337.521 272.287 338.711 259.326 349.234 251.492Z" fill="#334FBE"/>
<path d="M349.026 282.468C348.851 283.911 349.199 285.37 350.007 286.578C350.815 287.786 352.029 288.664 353.428 289.052C354.073 289.185 354.738 289.189 355.384 289.064C356.031 288.938 356.646 288.687 357.196 288.323C357.745 287.959 358.217 287.49 358.585 286.943C358.953 286.396 359.21 285.782 359.341 285.136C359.521 283.694 359.177 282.236 358.372 281.027C357.568 279.818 356.356 278.939 354.958 278.551C353.653 278.283 352.295 278.544 351.182 279.279C350.07 280.013 349.294 281.16 349.026 282.468Z" fill="#B57A74"/>
<path d="M363.403 290.453L358.094 284.89L354.637 289.166L363.403 295.599" fill="#B57A74"/>
<path d="M362.553 285.306L356.885 293.651L372.206 307.71C373.145 307.977 374.125 308.066 375.097 307.975L395.33 305.363C396.858 305.285 398.294 304.604 399.324 303.47C400.354 302.336 400.894 300.84 400.827 299.308C400.676 296.11 401.281 291.493 398.088 291.645L374.587 296.47L362.553 285.306Z" fill="#C8C6F2"/>
<path d="M407.931 304.455C408.197 302.286 407.85 300.086 406.928 298.105C406.006 296.124 404.547 294.443 402.716 293.253C401.416 292.219 399.806 291.652 398.145 291.645C395.885 291.84 393.734 292.701 391.963 294.118C390.191 295.536 388.878 297.447 388.189 299.611C385.166 308.883 384.41 336.301 384.41 336.301L406.098 337.039L407.931 304.455Z" fill="#D8D7FD"/>
<path d="M399.92 305.155L406.438 329.148L407.761 308.788L399.92 305.155Z" fill="#C8C6F2"/>
<path d="M426.501 352.077C427.494 351.017 428.072 349.635 428.131 348.183C428.19 346.731 427.725 345.306 426.822 344.168C426.38 343.679 425.846 343.282 425.25 343C424.654 342.718 424.009 342.556 423.351 342.525C422.693 342.493 422.035 342.592 421.415 342.815C420.795 343.039 420.225 343.383 419.738 343.828C418.75 344.889 418.173 346.269 418.11 347.719C418.048 349.169 418.505 350.594 419.398 351.737C419.842 352.227 420.377 352.624 420.975 352.907C421.572 353.189 422.219 353.35 422.879 353.382C423.539 353.414 424.198 353.315 424.82 353.091C425.441 352.867 426.013 352.523 426.501 352.077Z" fill="#B57A74"/>
<path d="M416.603 334.806L420.552 344.57L425.86 343.169L422.573 332.8" fill="#B57A74"/>
<path d="M416.904 342.942L427.767 340.558L420.399 315.335C420.131 314.397 419.689 313.517 419.096 312.743L405.588 295.883C403.699 293.272 400.676 293.726 398.031 295.562C397.407 295.995 396.874 296.548 396.463 297.188C396.053 297.828 395.772 298.544 395.639 299.293C395.506 300.042 395.521 300.81 395.686 301.553C395.85 302.296 396.159 303 396.595 303.623L409.612 319.309L416.904 342.942Z" fill="#D8D7FD"/>
<path d="M393.082 288.334L393.478 292.118C393.552 292.791 393.818 293.429 394.243 293.956C394.669 294.482 395.236 294.875 395.878 295.089C396.448 295.273 397.055 295.308 397.642 295.191C398.23 295.074 398.777 294.809 399.233 294.42C399.69 294.031 400.039 293.533 400.248 292.971C400.458 292.409 400.521 291.803 400.431 291.21L399.524 285.287L393.082 288.334Z" fill="#A8645C"/>
<path d="M393.441 291.721C393.441 291.721 400.128 291.512 400.619 285.685C401.111 279.857 393.97 283.338 393.97 283.338L393.157 289.015L393.441 291.721Z" fill="#E16C5F"/>
<path d="M387.849 272.477C386.554 274.057 385.756 275.986 385.556 278.02C385.357 280.054 385.764 282.101 386.726 283.904C387.688 285.706 389.162 287.182 390.962 288.145C392.762 289.108 394.807 289.514 396.838 289.313C398.868 289.112 400.794 288.312 402.37 287.014C403.947 285.716 405.104 283.98 405.695 282.023C406.286 280.067 406.284 277.979 405.69 276.024C405.096 274.069 403.936 272.334 402.358 271.039C400.243 269.304 397.526 268.481 394.806 268.75C392.085 269.02 389.583 270.36 387.849 272.477Z" fill="#A8645C"/>
<path d="M399.033 281.938C399.033 281.938 395.424 289.507 401.262 291.228C407.099 292.95 407.761 276.867 407.761 276.867L400.827 265.116L385.714 265.003L384.788 274.596C384.788 274.596 386.677 276.375 399.505 277.472L399.033 281.938Z" fill="#231C61"/>
<path d="M394.801 274.237L397.748 282.297L402.905 278.854L394.801 274.237Z" fill="#231C61"/>
<path d="M397.937 279.724C397.572 280.169 397.346 280.712 397.289 281.286C397.233 281.859 397.347 282.436 397.617 282.944C397.888 283.453 398.302 283.87 398.809 284.142C399.316 284.414 399.892 284.53 400.465 284.474C401.037 284.419 401.58 284.195 402.026 283.83C402.471 283.465 402.798 282.977 402.967 282.426C403.135 281.875 403.136 281.287 402.971 280.735C402.805 280.183 402.48 279.693 402.036 279.326C401.438 278.839 400.673 278.607 399.905 278.681C399.137 278.756 398.43 279.13 397.937 279.724Z" fill="#A8645C"/>
<path d="M385.185 275.505C385.185 275.505 384.694 267.065 390.852 263.224C392.065 262.464 393.419 261.958 394.833 261.738C396.246 261.517 397.69 261.585 399.076 261.939C400.462 262.293 401.762 262.924 402.898 263.796C404.033 264.667 404.981 265.76 405.683 267.009C407.309 270.365 407.736 274.179 406.892 277.813L385.185 275.505Z" fill="#F5D100"/>
<path d="M386.318 275.599L387.282 270.585C387.406 269.979 387.757 269.445 388.264 269.093C388.77 268.741 389.393 268.597 390.002 268.692V268.692C390.603 268.795 391.143 269.121 391.515 269.605C391.886 270.089 392.061 270.696 392.005 271.304L391.457 276.375" stroke="#F1AB00" stroke-width="0.28" stroke-miterlimit="10"/>
<path d="M406.91 277.907L383.296 275.258" stroke="white" stroke-width="1.13" stroke-linecap="round" stroke-linejoin="round"/>
<path d="M551.055 339.139L526.609 363.264" stroke="#3D5AC4" stroke-width="2" stroke-miterlimit="10"/>
<path d="M551.055 313.348L526.609 337.474" stroke="#3D5AC4" stroke-width="2" stroke-miterlimit="10"/>
<path d="M551.055 287.558L526.609 311.702" stroke="#3D5AC4" stroke-width="2" stroke-miterlimit="10"/>
<path d="M551.055 261.786L526.609 285.911" stroke="#3D5AC4" stroke-width="2" stroke-miterlimit="10"/>
<path d="M551.055 235.995L526.609 260.121" stroke="#3D5AC4" stroke-width="2" stroke-miterlimit="10"/>
<path d="M551.055 210.223L526.609 234.349" stroke="#3D5AC4" stroke-width="2" stroke-miterlimit="10"/>
<path d="M551.055 184.433L526.609 208.558" stroke="#3D5AC4" stroke-width="2" stroke-miterlimit="10"/>
<path d="M551.055 158.661L526.609 182.786" stroke="#3D5AC4" stroke-width="2" stroke-miterlimit="10"/>
<path d="M551.055 132.87L526.609 156.996" stroke="#3D5AC4" stroke-width="2" stroke-miterlimit="10"/>
<path d="M551.055 107.08L526.609 131.205" stroke="#3D5AC4" stroke-width="2" stroke-miterlimit="10"/>
<path d="M551.055 81.3079L526.609 105.433" stroke="#3D5AC4" stroke-width="2" stroke-miterlimit="10"/>
<path d="M526.609 337.474H551.055" stroke="#3D5AC4" stroke-width="2.65" stroke-miterlimit="10"/>
<path d="M526.609 311.702H551.055" stroke="#3D5AC4" stroke-width="2.65" stroke-miterlimit="10"/>
<path d="M526.609 285.911H551.055" stroke="#3D5AC4" stroke-width="2.65" stroke-miterlimit="10"/>
<path d="M526.609 260.121H551.055" stroke="#3D5AC4" stroke-width="2.65" stroke-miterlimit="10"/>
<path d="M526.609 234.349H551.055" stroke="#3D5AC4" stroke-width="2.65" stroke-miterlimit="10"/>
<path d="M526.609 208.558H551.055" stroke="#3D5AC4" stroke-width="2.65" stroke-miterlimit="10"/>
<path d="M526.609 182.787H551.055" stroke="#3D5AC4" stroke-width="2.65" stroke-miterlimit="10"/>
<path d="M526.609 156.996H551.055" stroke="#3D5AC4" stroke-width="2.65" stroke-miterlimit="10"/>
<path d="M526.609 131.205H551.055" stroke="#3D5AC4" stroke-width="2.65" stroke-miterlimit="10"/>
<path d="M526.609 105.434H551.055" stroke="#3D5AC4" stroke-width="2.65" stroke-miterlimit="10"/>
<path d="M526.609 370.247V85.4329" stroke="#5571E9" stroke-width="2" stroke-miterlimit="10"/>
<path d="M551.055 370.247V85.4329" stroke="#5571E9" stroke-width="2" stroke-miterlimit="10"/>
<path d="M562.673 363.264H514.008V413.9H562.673V363.264Z" fill="#231C61"/>
<path d="M551.112 37.2007H525.683C521.197 37.2007 517.56 40.8435 517.56 45.3371V77.2964C517.56 81.79 521.197 85.4329 525.683 85.4329H551.112C555.598 85.4329 559.235 81.79 559.235 77.2964V45.3371C559.235 40.8435 555.598 37.2007 551.112 37.2007Z" fill="#158EB8"/>
<path d="M521.414 48.8188H537.793C539.426 48.8188 540.993 49.4687 542.148 50.6256C543.303 51.7824 543.952 53.3514 543.952 54.9874V65.2242C543.952 66.8602 543.303 68.4292 542.148 69.5861C540.993 70.7429 539.426 71.3928 537.793 71.3928H521.414V48.8188Z" fill="#2D9CDB"/>
<path d="M365.405 88.063L384.939 144.924" stroke="#231C61" stroke-width="2.16" stroke-miterlimit="10"/>
<path d="M351.803 81.3079L313.679 132.87" stroke="#231C61" stroke-width="2.16" stroke-miterlimit="10"/>
<path d="M291.131 161.786L330.521 213.369C334.856 219.047 342.966 220.129 348.635 215.787L400.135 176.334C405.804 171.992 406.885 163.869 402.549 158.191L363.16 106.609C358.824 100.931 350.714 99.8485 345.045 104.191L293.545 143.643C287.876 147.986 286.796 156.109 291.131 161.786Z" fill="#EF801E"/>
<path d="M301.255 161.464L333.494 203.683C337.037 208.323 343.665 209.207 348.298 205.658L390.449 173.368C395.082 169.819 395.965 163.18 392.422 158.54L360.183 116.321C356.64 111.681 350.012 110.797 345.379 114.346L303.227 146.636C298.595 150.185 297.712 156.824 301.255 161.464Z" stroke="#231C61" stroke-width="1.11" stroke-miterlimit="10"/>
<path d="M350.216 179.229C349.196 186.798 337.578 185.341 338.598 177.678C339.618 170.014 351.236 171.509 350.216 179.229ZM355.166 136.447L350.613 168.614L340.846 167.309C342.3 156.485 343.491 145.964 344.945 135.141L355.166 136.447Z" fill="white"/>
<path d="M359.832 92.8503C368.857 92.8503 376.173 85.5223 376.173 76.4828C376.173 67.4432 368.857 60.1152 359.832 60.1152C350.807 60.1152 343.491 67.4432 343.491 76.4828C343.491 85.5223 350.807 92.8503 359.832 92.8503Z" fill="#158EB8"/>
<path d="M371.375 76.4829C371.375 78.774 370.696 81.0137 369.425 82.9185C368.154 84.8233 366.347 86.3075 364.233 87.1834C362.12 88.0594 359.794 88.2876 357.551 87.8392C355.307 87.3909 353.247 86.2861 351.631 84.6646C350.015 83.0432 348.915 80.978 348.471 78.7305C348.027 76.4829 348.259 74.1539 349.137 72.0382C350.015 69.9225 351.5 68.1152 353.404 66.845C355.307 65.5748 357.545 64.8989 359.832 64.9026C362.895 64.9076 365.831 66.1299 367.995 68.3011C370.159 70.4722 371.375 73.4149 371.375 76.4829Z" fill="#2D9CDB"/>
<path d="M423.913 2.4978V37.2007" stroke="#3D5AC4" stroke-width="2.65" stroke-miterlimit="10"/>
<path d="M392.836 2.4978V37.2007" stroke="#3D5AC4" stroke-width="2.65" stroke-miterlimit="10"/>
<path d="M454.858 2.4978V37.2007" stroke="#3D5AC4" stroke-width="2.65" stroke-miterlimit="10"/>
<path d="M489.26 2.4978V37.2007" stroke="#3D5AC4" stroke-width="2.65" stroke-miterlimit="10"/>
<path d="M521.357 2.4978V37.2007" stroke="#3D5AC4" stroke-width="2.65" stroke-miterlimit="10"/>
<path d="M554.625 2.4978V37.2007" stroke="#3D5AC4" stroke-width="2.65" stroke-miterlimit="10"/>
<path d="M587.308 2.4978V37.2007" stroke="#3D5AC4" stroke-width="2.65" stroke-miterlimit="10"/>
<path d="M391.23 37.2007L423.913 2.4978" stroke="#3D5AC4" stroke-width="2" stroke-miterlimit="10"/>
<path d="M423.913 37.2007L456.577 2.4978" stroke="#3D5AC4" stroke-width="2" stroke-miterlimit="10"/>
<path d="M456.577 37.2007L489.26 2.4978" stroke="#3D5AC4" stroke-width="2" stroke-miterlimit="10"/>
<path d="M489.26 37.2007L521.943 2.4978" stroke="#3D5AC4" stroke-width="2" stroke-miterlimit="10"/>
<path d="M521.943 37.2007L554.625 2.4978" stroke="#3D5AC4" stroke-width="2" stroke-miterlimit="10"/>
<path d="M554.625 37.2007L587.308 2.4978" stroke="#3D5AC4" stroke-width="2" stroke-miterlimit="10"/>
<path d="M359.832 37.2007H626.263L590.388 2.4978H387.395L359.832 37.2007Z" stroke="#5571E9" stroke-width="2" stroke-linecap="round" stroke-linejoin="round"/>
<path d="M359.832 37.2007V76.4827" stroke="#5571E9" stroke-width="2.65" stroke-linecap="round" stroke-linejoin="round"/>
<path d="M218.956 409.207L237.602 360.937C237.798 360.426 238.144 359.987 238.594 359.677C239.044 359.367 239.578 359.201 240.124 359.201C240.671 359.201 241.204 359.367 241.654 359.677C242.105 359.987 242.45 360.426 242.646 360.937L261.292 409.207H218.956Z" fill="#EF801E"/>
<path d="M256.399 371.306H223.282V381.562H256.399V371.306Z" fill="#FAFAFA"/>
<path d="M258.931 390.682H221.469V400.938H258.931V390.682Z" fill="#FAFAFA"/>
<path d="M264.92 409.207H215.555V413.275H264.92V409.207Z" fill="#F2994A"/>
<path d="M489.789 409.358L508.435 361.089C508.626 360.576 508.97 360.134 509.419 359.822C509.868 359.51 510.401 359.343 510.948 359.343C511.494 359.343 512.027 359.51 512.477 359.822C512.926 360.134 513.269 360.576 513.46 361.089L532.125 409.358H489.789Z" fill="#EF801E"/>
<path d="M527.232 371.458H494.115V381.713H527.232V371.458Z" fill="#FAFAFA"/>
<path d="M529.764 390.834H492.301V401.089H529.764V390.834Z" fill="#FAFAFA"/>
<path d="M535.734 409.358H486.369V413.427H535.734V409.358Z" fill="#C26717"/>
<path d="M155.945 334.219C159.095 313.03 144.499 293.294 123.343 290.139C102.187 286.983 82.4834 301.603 79.333 322.792C76.1826 343.982 90.7788 363.717 111.934 366.873C133.09 370.028 152.794 355.409 155.945 334.219Z" fill="#EF801E"/>
<path d="M117.658 314.692V413.275" stroke="#3D5AC4" stroke-width="1.14" stroke-linecap="round" stroke-linejoin="round"/>
<path d="M102.601 316.698L117.658 333.614" stroke="#3D5AC4" stroke-width="1.14" stroke-linecap="round" stroke-linejoin="round"/>
<path d="M131.015 332.687C129.938 333.765 117.658 346.575 117.658 346.575" stroke="#3D5AC4" stroke-width="1.14" stroke-linecap="round" stroke-linejoin="round"/>
<path d="M1.07684 414.221H650.766" stroke="#3D5AC4" stroke-width="1.14" stroke-linecap="round" stroke-linejoin="round"/>
</svg>
