<svg width="89" height="70" viewBox="0 0 89 70" fill="none" xmlns="http://www.w3.org/2000/svg">
<path d="M28.2926 23.0998C27.8434 22.8717 27.3647 22.6796 26.8624 22.5296C22.0298 21.0895 18.8035 22.879 17.2286 27.197C17.252 26.7718 17.3238 26.3461 17.4496 25.9245C18.4278 22.6426 22.2607 20.8873 26.0106 22.0049C26.8541 22.2565 27.6215 22.6317 28.2926 23.0998Z" fill="#EF801E"/>
<path d="M3.37302 69.7049C2.0327 69.7049 0.655054 69.0326 0.655054 67.6646V63.7499C0.655054 62.382 2.0327 61.6976 3.37302 61.6976C4.36024 61.6976 5.37165 62.0869 5.82248 62.8064L6.09003 62.6178C5.57896 61.816 4.49418 61.4145 3.40923 61.4145C1.88563 61.4145 0.349854 62.2163 0.349854 63.7499V67.6646C0.349854 69.2102 1.87361 70 3.37302 70C4.46998 70 5.57896 69.5876 6.09003 68.7858L5.82248 68.655C5.34634 69.3627 4.34726 69.7049 3.37302 69.7049Z" fill="#0A475C"/>
<path d="M7.94277 65.8956V61.8041H10.7093C12.0856 61.7801 13.085 62.2988 13.085 63.8093C13.085 65.2824 12.2809 65.8956 10.7093 65.8956H7.94277ZM10.7093 66.1554C12.2809 66.1554 13.3779 65.5303 13.3779 63.7971C13.3406 62.0992 12.1954 61.5332 10.696 61.5332H7.6499V69.8816H7.94277V66.1554H9.90406L12.8053 69.8816H13.1584L10.2452 66.1554H10.7093Z" fill="#0A475C"/>
<path d="M20.226 61.8272V61.5333H15.0957V69.8816H20.226V69.5878H15.4006V65.8847H19.8607V65.5655H15.4006V61.8272H20.226Z" fill="#0A475C"/>
<path d="M22.651 66.6042L24.4785 61.8161H24.5279L26.3552 66.6042H22.651ZM24.7472 61.5333H24.259L21.066 69.8816H21.3951L22.5413 66.8982H26.465L27.6102 69.8816H27.9392L24.7472 61.5333Z" fill="#0A475C"/>
<path d="M27.4402 61.5333V61.8272H30.3163V69.8816H30.6202V61.8272H33.4961V61.5333H27.4402Z" fill="#0A475C"/>
<path d="M34.897 69.8816H35.2019V61.5333H34.897V69.8816Z" fill="#0A475C"/>
<path d="M43.0864 61.521L40.0525 69.5407H39.991L36.8834 61.5332H36.5303L39.7715 69.8816H40.2597L43.4275 61.521H43.0864Z" fill="#0A475C"/>
<path d="M49.9355 61.8272V61.5333H44.8041V69.8816H49.9355V69.5878H45.1091V65.8847H49.5691V65.5655H45.1091V61.8272H49.9355Z" fill="#0A475C"/>
<path d="M57.6115 65.766V66.0491H60.2561V67.6297C60.2561 69.0214 58.8795 69.7169 57.527 69.7169C56.1614 69.7169 54.8089 69.0214 54.8089 67.6297V63.7499C54.8089 62.382 56.1494 61.7096 57.5017 61.7096C58.4891 61.7096 59.4762 62.0398 59.915 62.8064L60.1958 62.6289C59.6836 61.8269 58.6107 61.4145 57.527 61.4145C56.0155 61.4145 54.504 62.2163 54.504 63.7499V67.6297C54.504 69.2102 56.0155 70 57.527 70C59.0373 70 60.5611 69.2102 60.5611 67.6297V65.766H57.6115Z" fill="#0A475C"/>
<path d="M67.5441 61.8272V61.5333H62.4127V69.8816H67.5441V69.5878H62.7178V65.8847H67.1775V65.5655H62.7178V61.8272H67.5441Z" fill="#0A475C"/>
<path d="M74.4282 61.8272V61.5333H69.298V69.8816H74.4282V69.5878H69.6029V65.8847H74.063V65.5655H69.6029V61.8272H74.4282Z" fill="#0A475C"/>
<path d="M81.9838 61.5333H81.5943L76.4882 66.6042V61.5333H76.1833V69.8816H76.4882V67.0167L77.7792 65.7663L81.6305 69.8816H81.9838L77.9987 65.5546L81.9838 61.5333Z" fill="#0A475C"/>
<path d="M85.6758 65.4709C84.2873 65.1999 83.0444 64.681 83.1408 63.4427C83.2264 62.1933 84.3969 61.6974 85.6156 61.6974C86.5775 61.6974 87.5647 62.0516 88.0155 62.8064L88.2962 62.7C87.76 61.7918 86.7244 61.4145 85.6156 61.4145C84.2378 61.4145 82.8853 62.0629 82.837 63.4427C82.7637 65.0232 84.3113 65.4949 85.6034 65.7538C86.9439 66.0367 88.2844 66.4504 88.1746 67.9367C88.0035 69.1629 86.8221 69.7169 85.6276 69.7169C84.6162 69.7169 83.6049 69.3154 83.0444 68.5378L82.7637 68.655C83.4096 69.5985 84.5428 70 85.6034 70C87.0163 70 88.4061 69.2803 88.5037 67.9367C88.6255 66.2967 87.0897 65.7429 85.6758 65.4709Z" fill="#0A475C"/>
<path d="M74.1057 29.6111V43.0777H73.9828C71.6727 44.406 69.2728 45.1651 66.4229 45.1651C62.5091 45.1651 58.9233 43.7315 56.1637 41.361C56.0232 41.2404 55.884 41.1164 55.7479 40.9902C52.6174 38.1075 50.6528 33.9755 50.6528 29.394C50.6528 24.7343 52.6854 20.5385 55.9114 17.6493C55.9948 17.5748 56.0791 17.5 56.1637 17.4277C58.9233 15.0574 62.5091 13.6237 66.4229 13.6237C69.3352 13.6237 72.0655 14.4167 74.4085 15.7987C75.7159 16.5701 76.9028 17.5243 77.9328 18.6256L79.7777 17.1129L87.3618 10.899L88.1702 10.2363V10.0752C87.7325 9.57275 87.2762 9.08458 86.8012 8.60972C84.1039 5.91242 80.9614 3.79316 77.4609 2.31345C73.8314 0.77784 69.9814 0.000171661 66.016 0.000171661C62.0517 0.000171661 58.2017 0.77784 54.5731 2.31345C52.0985 3.35883 49.8038 4.72446 47.7176 6.38728C47.654 6.43887 47.5892 6.49062 47.5256 6.54205C47.474 6.5837 47.4225 6.62648 47.3709 6.66925C47.3632 6.6747 47.3555 6.68127 47.3468 6.688C41.9149 10.9659 38.057 17.1536 36.7858 24.2384C37.3495 24.3536 37.9156 24.4611 38.4773 24.5894C39.5851 24.8438 40.0436 25.2202 40.1686 26.1119L40.1697 26.113C40.2926 26.3312 40.5723 26.6702 40.9155 26.101C40.9429 25.7247 41.0877 25.4757 41.5704 25.4624C41.9948 25.4504 42.2055 25.6052 42.2824 25.9014C42.2835 25.9024 42.2835 25.9035 42.2835 25.9044C42.3899 26.1098 42.6729 26.5252 43.0282 25.978C43.0809 25.6622 43.2531 25.4701 43.683 25.4624C44.1285 25.4538 44.3257 25.6302 44.3918 25.9474C44.5145 26.1656 44.7932 26.5055 45.1366 25.9397V25.9386C45.1934 25.6566 45.357 25.4682 45.7891 25.4614C46.4561 25.4515 46.5242 25.8573 46.5163 26.3795C46.512 26.6515 46.5097 26.9237 46.5097 27.1946V27.1956C46.6448 27.4051 46.9003 27.6443 47.2097 27.1486C47.2491 26.805 47.4454 26.8588 47.7647 27.0124C48.4491 27.3415 48.5611 28.082 48.9592 28.6137V30.3634C48.5643 30.8987 48.4523 31.6392 47.769 31.9694C47.4684 32.114 47.2699 32.1788 47.2163 31.8849C47.0923 31.6731 46.8313 31.3759 46.5097 31.8652C46.5109 32.1262 46.5131 32.3885 46.5153 32.6494C46.5219 33.1376 46.4493 33.5106 45.8319 33.5181C45.3657 33.5237 45.1826 33.3316 45.1266 33.0005V32.9992C44.9949 32.7811 44.7231 32.487 44.3918 33.0444C44.3325 33.335 44.1548 33.5093 43.74 33.5181C43.2597 33.528 43.0742 33.3271 43.0228 32.9686V32.9676C42.8813 32.7493 42.6093 32.5014 42.2824 33.0881V33.0892C42.2034 33.38 41.9928 33.528 41.5695 33.5171C41.169 33.5061 41.0023 33.3372 40.9419 33.0684C40.8279 32.8491 40.5131 32.3894 40.1236 33.1245C39.9547 33.8494 39.5017 34.2181 38.5529 34.3639C37.966 34.4549 37.3902 34.5689 36.8209 34.704C38.0417 41.2436 41.4673 47.0067 46.2981 51.1925C46.2992 51.1948 46.3015 51.1959 46.3024 51.1968C46.5975 51.4657 46.8992 51.7278 47.2041 51.9812C47.3742 52.1238 47.5453 52.2642 47.7176 52.4013C49.8038 54.0643 52.0985 55.4286 54.5731 56.4753C58.2017 58.0098 62.0517 58.7886 66.016 58.7886C69.9814 58.7886 73.8314 58.0098 77.4609 56.4753C80.9614 54.9943 84.1039 52.8763 86.8012 50.179C87.252 49.7282 87.8541 49.0733 88.2886 48.5787V29.6034L74.1057 29.6111Z" fill="#201F1F"/>
<path d="M74.1057 29.6111V43.0777H73.9828C71.6727 44.406 69.2728 45.1651 66.4229 45.1651C62.5091 45.1651 58.9233 43.7315 56.1637 41.361C56.0232 41.2404 55.884 41.1164 55.7479 40.9902C52.6174 38.1075 50.6528 33.9755 50.6528 29.394C50.6528 24.7343 52.6854 20.5385 55.9114 17.6493C55.9948 17.5748 56.0791 17.5 56.1637 17.4277C58.9233 15.0574 62.5091 13.6237 66.4229 13.6237C69.3352 13.6237 72.0655 14.4167 74.4085 15.7987C75.7159 16.5701 76.9028 17.5243 77.9328 18.6256L79.7777 17.1129L87.3618 10.899L88.1702 10.2363V10.0752C87.7325 9.57275 87.2762 9.08458 86.8012 8.60972C84.1039 5.91242 80.9614 3.79316 77.4609 2.31345C73.8314 0.77784 69.9814 0.000171661 66.016 0.000171661C62.0517 0.000171661 58.2017 0.77784 54.5731 2.31345C52.0985 3.35883 49.8038 4.72446 47.7176 6.38728C47.654 6.43887 47.5892 6.49062 47.5256 6.54205C47.474 6.5837 47.4225 6.62648 47.3709 6.66925C47.3632 6.6747 47.3555 6.68127 47.3468 6.688C41.9149 10.9659 38.057 17.1536 36.7858 24.2384C37.3495 24.3536 37.9156 24.4611 38.4773 24.5894C39.5851 24.8438 40.0436 25.2202 40.1686 26.1119L40.1697 26.113C40.2926 26.3312 40.5723 26.6702 40.9155 26.101C40.9429 25.7247 41.0877 25.4757 41.5704 25.4624C41.9948 25.4504 42.2055 25.6052 42.2824 25.9014C42.2835 25.9024 42.2835 25.9035 42.2835 25.9044C42.3899 26.1098 42.6729 26.5252 43.0282 25.978C43.0809 25.6622 43.2531 25.4701 43.683 25.4624C44.1285 25.4538 44.3257 25.6302 44.3918 25.9474C44.5145 26.1656 44.7932 26.5055 45.1366 25.9397V25.9386C45.1934 25.6566 45.357 25.4682 45.7891 25.4614C46.4561 25.4515 46.5242 25.8573 46.5163 26.3795C46.512 26.6515 46.5097 26.9237 46.5097 27.1946V27.1956C46.6448 27.4051 46.9003 27.6443 47.2097 27.1486C47.2491 26.805 47.4454 26.8588 47.7647 27.0124C48.4491 27.3415 48.5611 28.082 48.9592 28.6137V30.3634C48.5643 30.8987 48.4523 31.6392 47.769 31.9694C47.4684 32.114 47.2699 32.1788 47.2163 31.8849C47.0923 31.6731 46.8313 31.3759 46.5097 31.8652C46.5109 32.1262 46.5131 32.3885 46.5153 32.6494C46.5219 33.1376 46.4493 33.5106 45.8319 33.5181C45.3657 33.5237 45.1826 33.3316 45.1266 33.0005V32.9992C44.9949 32.7811 44.7231 32.487 44.3918 33.0444C44.3325 33.335 44.1548 33.5093 43.74 33.5181C43.2597 33.528 43.0742 33.3271 43.0228 32.9686V32.9676C42.8813 32.7493 42.6093 32.5014 42.2824 33.0881V33.0892C42.2034 33.38 41.9928 33.528 41.5695 33.5171C41.169 33.5061 41.0023 33.3372 40.9419 33.0684C40.8279 32.8491 40.5131 32.3894 40.1236 33.1245C39.9547 33.8494 39.5017 34.2181 38.5529 34.3639C37.966 34.4549 37.3902 34.5689 36.8209 34.704C38.0417 41.2436 41.4673 47.0067 46.2981 51.1925C46.2992 51.1948 46.3015 51.1959 46.3024 51.1968C46.5975 51.4657 46.8992 51.7278 47.2041 51.9812C47.3742 52.1238 47.5453 52.2642 47.7176 52.4013C49.8038 54.0643 52.0985 55.4286 54.5731 56.4753C58.2017 58.0098 62.0517 58.7886 66.016 58.7886C69.9814 58.7886 73.8314 58.0098 77.4609 56.4753C80.9614 54.9943 84.1039 52.8763 86.8012 50.179C87.252 49.7282 87.8541 49.0733 88.2886 48.5787V29.6034L74.1057 29.6111Z" fill="#158EB8"/>
<path d="M44.5452 53.5902C44.6035 53.6427 44.6615 53.6954 44.7195 53.7461C40.2125 56.6077 34.8651 58.2642 29.1317 58.2642C13.0422 58.2642 0 45.221 0 29.1315C0 13.0432 13.0422 -3.05176e-05 29.1317 -3.05176e-05C35.0044 -3.05176e-05 40.4714 1.73857 45.0465 4.72874C39.4084 9.41249 35.4059 15.996 34.0149 23.4956C32.0615 22.8133 30.233 21.8392 28.3933 20.8805C22.8771 18.0089 16.3439 20.671 14.4539 26.5383C14.2707 27.1055 14.1392 27.6891 13.9844 28.2649V30.8876C14.148 30.9611 14.1283 31.117 14.1544 31.2551C15.4017 37.7433 22.3527 41.2162 28.2255 38.1743C30.1418 37.1816 32.0658 36.2493 34.0687 35.5297C35.4631 42.6869 39.2407 48.992 44.5409 53.5859C44.542 53.5879 44.5441 53.5891 44.5452 53.5902Z" fill="#EF801E"/>
</svg>
